# xmcd
#
# Track frame offsets:
#	150
#	14157
#	25632
#	42792
#	63725
#	76100
#	88337
#	102002
#	120322
#	133562
#	153105
#	171852
#	184107
#	195470
#	218957
#	241825
#
# Disc length: 3504 seconds
# Revision: 3
# Processed by: cddbd v1.5.2PL0 Copyright (c) Steve Scherf et al.
# Submitted via: dBpowerAMP V12.0
#
DISCID=c90dae10
DTITLE=Skip Gorman - Cowboy's Wild Song to His Herd
DYEAR=1999
DGENRE=Country
TTITLE0=A Cowboy's Wild Song to His Herd
TTITLE1=Smith's Red Apple Rag
TTITLE2=Song of a Cowboy
TTITLE3=Little Joe the Wrangler's Sister Nell
TTITLE4=Rocky Road to Dublin
TTITLE5=Pretty Little Dogies
TTITLE6=Piney Woods - Coyote Howl
TTITLE7=Amarillo Waltz
TTITLE8=Ramblin' Jack (A Lonesome Hobo)
TTITLE9=Ridge Running Roan
TTITLE10=Cowboy Love Song
TTITLE11=Green River Ramble
TTITLE12=Away Out on the Mountain
TTITLE13=Utah Carroll
TTITLE14=Midnight on the Water - Dry and Dusty
TTITLE15=Prisoner for Life
EXTD=
EXTT0=
EXTT1=
EXTT2=
EXTT3=
EXTT4=
EXTT5=
EXTT6=
EXTT7=
EXTT8=
EXTT9=
EXTT10=
EXTT11=
EXTT12=
EXTT13=
EXTT14=
EXTT15=
PLAYORDER=
